<?xml version="1.0" encoding="UTF-8" standalone="no"?>
<!-- Generator: Adobe Illustrator 25.0.0, SVG Export Plug-In . SVG Version: 6.00 Build 0)  -->

<svg
   xmlns:dc="http://purl.org/dc/elements/1.1/"
   xmlns:cc="http://creativecommons.org/ns#"
   xmlns:rdf="http://www.w3.org/1999/02/22-rdf-syntax-ns#"
   xmlns:svg="http://www.w3.org/2000/svg"
   xmlns="http://www.w3.org/2000/svg"
   xmlns:sodipodi="http://sodipodi.sourceforge.net/DTD/sodipodi-0.dtd"
   xmlns:inkscape="http://www.inkscape.org/namespaces/inkscape"
   version="1.1"
   id="Layer_1"
   x="0px"
   y="0px"
   viewBox="0 0 576 576"
   style="enable-background:new 0 0 576 576;"
   xml:space="preserve"
   sodipodi:docname="L_Logo.svg"><metadata
   id="metadata905"><rdf:RDF><cc:Work
       rdf:about=""><dc:format>image/svg+xml</dc:format><dc:type
         rdf:resource="http://purl.org/dc/dcmitype/StillImage" /></cc:Work></rdf:RDF></metadata><defs
   id="defs903" /><sodipodi:namedview
   pagecolor="#ffffff"
   bordercolor="#666666"
   borderopacity="1"
   objecttolerance="10"
   gridtolerance="10"
   guidetolerance="10"
   inkscape:pageopacity="0"
   inkscape:pageshadow="2"
   inkscape:window-width="640"
   inkscape:window-height="480"
   id="namedview901"
   showgrid="false" />
<style
   type="text/css"
   id="style896">
	.st0{fill:#D71920;}
</style>
<path
   class="st0"
   d="M335.41,297.34c0-6.35,0-12.7,0-19.05c13.39,0.03,26.78,0.06,40.17,0.08c44.1,0.09,88.2,0.18,132.3,0.28  c6.69,0.01,30.77-46.26,27.84-48.22C468.9,185.89,402.08,141.34,335.26,96.8c-3.07-2.05-27.99,40.94-27.99,46.99  c0,28.72,0,57.44,0,86.17c-13.39-0.03-26.78-0.06-40.17-0.08c-44.1-0.09-88.2-0.19-132.29-0.28c-5.44-0.01-14.23,19.08-16.33,22.72  c-0.75,1.29-12.5,25.5-11.51,25.5c66.77,0.14,133.54,0.28,200.31,0.42c0,6.37,0,12.74,0,19.1c-8.61,0-17.21,0-25.82,0  c-71.16,0-142.31,0-213.47,0c-7.42,0-29.75,47.27-27.84,48.22c81.97,40.99,163.94,81.97,245.91,122.96  c7.12,3.56,14.24,7.12,21.36,10.68c4.27,2.13,27.98-41.01,27.98-46.99c0-28.88,0-57.76,0-86.64c57.49,0,114.98,0,172.47,0  c5.45,0,14.23-19.07,16.33-22.72c0.75-1.3,12.49-25.5,11.51-25.5C468.95,297.34,402.18,297.34,335.41,297.34z M335.41,163.68  c33.27,22.18,66.55,44.37,99.82,66.55c-33.27-0.07-66.55-0.14-99.82-0.21C335.41,207.9,335.41,185.79,335.41,163.68z M307.28,416.98  c-47.61-23.81-95.23-47.62-142.84-71.42c43.32,0,86.65,0,129.97,0c4.29,0,8.58,0,12.87,0C307.28,369.37,307.28,393.17,307.28,416.98  z"
   id="path898" />
</svg>
