<?xml version="1.0" encoding="utf-8"?>
<!-- Generator: Adobe Illustrator 25.1.0, SVG Export Plug-In . SVG Version: 6.00 Build 0)  -->
<svg version="1.1" xmlns="http://www.w3.org/2000/svg" xmlns:xlink="http://www.w3.org/1999/xlink" x="0px" y="0px"
	 viewBox="0 0 576 576" style="enable-background:new 0 0 576 576;" xml:space="preserve">
<style type="text/css">
	.st0{fill:#FFFFFF;}
	.st1{fill:#5A2510;}
	.st2{clip-path:url(#SVGID_2_);fill:#1C1A0D;stroke:#231F20;stroke-miterlimit:10;}
	.st3{fill:#F9E9DE;stroke:#C5AD94;stroke-width:3;stroke-miterlimit:10;}
	.st4{fill:#F05161;}
	.st5{clip-path:url(#SVGID_4_);fill:#F5F5F6;}
	.st6{opacity:0.35;fill:url(#SVGID_5_);}
	.st7{opacity:0.35;fill:url(#SVGID_6_);}
	.st8{fill:#C5AD94;}
	.st9{fill:none;stroke:#C5AD94;stroke-width:3;stroke-miterlimit:10;}
	.st10{fill:#F9E9DE;}
	.st11{clip-path:url(#SVGID_8_);fill:#FFFFFF;}
	.st12{clip-path:url(#SVGID_10_);fill:#4379BD;}
	.st13{fill:#000012;}
	.st14{fill:#231F20;}
	.st15{clip-path:url(#SVGID_12_);fill:#FFFFFF;}
	.st16{clip-path:url(#SVGID_14_);fill:#4379BD;}
	.st17{fill:none;}
	.st18{clip-path:url(#SVGID_16_);}
	.st19{fill:none;stroke:#F5F5F6;stroke-width:3;stroke-miterlimit:10;}
	.st20{fill:#442200;}
	.st21{fill:#6A3D1B;}
	.st22{fill:#E6DBD5;}
	.st23{opacity:0.9;}
	.st24{opacity:0.1;}
	.st25{fill:#92552E;}
</style>
<g id="Layer_1">
	<circle class="st0" cx="288" cy="288" r="288"/>
</g>
<g id="Hair_Backing_Flat">
	<path class="st1" d="M483.92,287.99c-8.59-0.27-16.78-2.31-23.96-5.7c-2.38-1.12-4.63-2.4-6.77-3.79
		c14.53-16.94,23.71-41.87,23.71-69.66c0-5.67-0.38-11.21-1.11-16.6c2.91,4.12,5.38,8.71,7.26,13.66
		c3.06,8.02,4.55,17.01,4.14,26.26c3.73-8.46,5.88-18,5.97-27.92c0.11-9.92-1.84-20.18-5.88-29.95
		c-4.05-9.76-10.21-19.01-18.25-26.89c-6.32-6.21-13.84-11.51-22.13-15.61c-8.32-35.15-32.36-64.22-64.3-79.36
		c8.01-5.77,14.54-12.99,19.29-20.88c-7.33,5.66-15.53,9.61-23.86,11.73c-5.03,1.29-10.1,1.9-15.05,1.92
		c-1.99-0.54-3.99-1.02-6.02-1.46c-0.52-1.35-1.08-2.69-1.74-4c-15.05-29.66-62.95-35.59-106.98-13.25
		c-9.25,4.7-17.58,10.27-24.86,16.42c-20.75,3.66-39.62,12.74-55.11,25.73c-6.4,2.69-12.33,6.12-17.64,10.17
		c-8.41,6.4-15.25,14.3-20.14,22.93c-4.91,8.62-7.85,17.95-8.88,27.14c3.99-7.61,9.28-14.17,15.35-19.4
		c-2.35,5.06-4.35,10.32-5.97,15.73c-17.36,20.61-28.3,50.61-28.3,84.01c0,6.51,0.42,12.88,1.22,19.09
		c-2.59,3.63-4.88,7.43-6.82,11.33c-5.03,10.07-7.82,20.83-8.46,31.37c-0.64,10.55,0.89,20.89,4.23,30.23
		c3.33,9.35,8.48,17.66,14.77,24.44c-3.41-8.61-4.94-17.59-4.67-26.17c0.26-8.59,2.28-16.78,5.66-23.97c1.6-3.4,3.5-6.57,5.64-9.47
		c3.32,7.54,7.29,14.53,11.79,20.82v13.94c0,25.65,9.37,49.1,24.87,67.14c-2.86-0.79-5.7-1.79-8.49-3.02
		c-7.86-3.46-15.3-8.71-21.6-15.5c3.4,8.6,8.68,16.83,15.68,23.87c6.98,7.04,15.65,12.87,25.45,16.85
		c8.51,3.46,17.87,5.5,27.56,5.85c0.9,0.38,1.81,0.74,2.72,1.09c-1.14,0.59-2.3,1.16-3.5,1.68c-6.67,2.88-14.29,4.47-22.24,4.42
		c-7.94-0.05-16.21-1.76-24.07-5.23c-7.86-3.46-15.3-8.71-21.6-15.5c3.4,8.6,8.68,16.83,15.68,23.87
		c6.98,7.04,15.65,12.87,25.45,16.85c9.79,3.98,20.7,6.09,31.95,5.9c11.25-0.17,22.82-2.7,33.65-7.51l-6.91-10.98
		c20.53,11.23,43.35,17.51,67.41,17.51c24.27,0,47.29-6.39,67.96-17.81l-7.11,11.29c10.84,4.81,22.41,7.34,33.65,7.51
		c11.25,0.19,22.17-1.93,31.95-5.9c9.79-3.98,18.46-9.81,25.45-16.85c7-7.04,12.28-15.27,15.68-23.87
		c-6.3,6.79-13.74,12.04-21.6,15.5c-7.86,3.47-16.12,5.17-24.07,5.23c-7.95,0.05-15.57-1.54-22.24-4.42
		c-1.25-0.54-2.46-1.14-3.65-1.76c0.83-0.32,1.66-0.65,2.48-0.99c9.83-0.31,19.33-2.37,27.95-5.87c9.79-3.98,18.46-9.81,25.45-16.85
		c7-7.04,12.28-15.27,15.68-23.87c-6.3,6.79-13.74,12.04-21.6,15.5c-2.95,1.3-5.95,2.35-8.97,3.17
		c15.38-17.84,24.75-41.01,24.97-66.36c1.78,0.23,3.57,0.43,5.34,0.54c10.55,0.65,20.89-0.85,30.23-4.18
		c9.35-3.31,17.68-8.45,24.46-14.73C501.48,286.76,492.51,288.28,483.92,287.99z"/>
</g>
<g id="Layer_2">
	<g>
		<defs>
			<circle id="SVGID_1_" cx="288" cy="288" r="288"/>
		</defs>
		<clipPath id="SVGID_2_">
			<use xlink:href="#SVGID_1_"  style="overflow:visible;"/>
		</clipPath>
		<path class="st2" d="M121.65,433.08h332.69c37.36,0,67.65,30.29,67.65,67.65v7.62c0,37.36-30.29,67.65-67.65,67.65H121.65
			C84.29,576,54,545.71,54,508.35v-7.62C54,463.37,84.29,433.08,121.65,433.08z"/>
	</g>
	<path class="st3" d="M290.9,504.54h-5.79c-40.65,0-73.6-32.95-73.6-73.6v-56.36h153v56.36C364.5,471.59,331.55,504.54,290.9,504.54
		z"/>
	<path class="st3" d="M299.15,406.08h-22.31c-68.4,0-123.85-55.45-123.85-123.85v-82.79c0-74.31,60.24-134.55,134.55-134.55h0.91
		c74.31,0,134.55,60.24,134.55,134.55v82.79C423,350.63,367.55,406.08,299.15,406.08z"/>
	<g>
		<path class="st4" d="M351.4,342.34c0,17.57-28.39,31.82-63.4,31.82s-63.4-14.25-63.4-31.82
			C224.6,324.77,351.4,324.77,351.4,342.34z"/>
	</g>
	<g>
		<defs>
			<path id="SVGID_3_" d="M351.4,342.34c0,17.57-28.39,31.82-63.4,31.82s-63.4-14.25-63.4-31.82
				C224.6,324.77,351.4,324.77,351.4,342.34z"/>
		</defs>
		<clipPath id="SVGID_4_">
			<use xlink:href="#SVGID_3_"  style="overflow:visible;"/>
		</clipPath>
		<rect x="234.3" y="326.55" class="st5" width="107.39" height="51.07"/>
	</g>
	<path class="st1" d="M235.92,208.25c10.72,1.76,20.43,5.6,28.53,10.86c0.94,0.61,2.08-0.45,1.52-1.43
		c-6.21-10.8-16.53-19.66-29.68-24.19c-27.37-9.42-56.64,3.51-65.37,28.88c-1.48,4.3-2.27,8.68-2.44,13.03
		c-0.04,1.17,1.55,1.57,2.05,0.5C179.95,215.49,206.86,203.47,235.92,208.25z"/>
	<path class="st1" d="M340.32,208.25c-10.72,1.76-20.43,5.6-28.53,10.86c-0.94,0.61-2.08-0.45-1.52-1.43
		c6.21-10.8,16.53-19.66,29.68-24.19c27.37-9.42,56.64,3.51,65.37,28.88c1.48,4.3,2.27,8.68,2.44,13.03
		c0.04,1.17-1.55,1.57-2.05,0.5C396.28,215.49,369.37,203.47,340.32,208.25z"/>
	
		<radialGradient id="SVGID_5_" cx="200.1353" cy="288.0303" r="51.2819" gradientTransform="matrix(1 0 0 0.5 0 144.0152)" gradientUnits="userSpaceOnUse">
		<stop  offset="0" style="stop-color:#F05161"/>
		<stop  offset="0.4024" style="stop-color:#F05363;stop-opacity:0.5976"/>
		<stop  offset="0.5473" style="stop-color:#F15A69;stop-opacity:0.4527"/>
		<stop  offset="0.6506" style="stop-color:#F26574;stop-opacity:0.3494"/>
		<stop  offset="0.7342" style="stop-color:#F37683;stop-opacity:0.2658"/>
		<stop  offset="0.8057" style="stop-color:#F58C97;stop-opacity:0.1943"/>
		<stop  offset="0.8691" style="stop-color:#F7A8B0;stop-opacity:0.1309"/>
		<stop  offset="0.9265" style="stop-color:#FAC8CD;stop-opacity:0.0735"/>
		<stop  offset="0.9774" style="stop-color:#FDECEE;stop-opacity:0.0226"/>
		<stop  offset="1" style="stop-color:#FFFFFF;stop-opacity:0"/>
	</radialGradient>
	<ellipse class="st6" cx="200.14" cy="288.03" rx="54" ry="28.53"/>
	
		<radialGradient id="SVGID_6_" cx="375.1353" cy="288.0303" r="51.2819" gradientTransform="matrix(1 0 0 0.5 0 144.0152)" gradientUnits="userSpaceOnUse">
		<stop  offset="0" style="stop-color:#F05161"/>
		<stop  offset="0.4024" style="stop-color:#F05363;stop-opacity:0.5976"/>
		<stop  offset="0.5473" style="stop-color:#F15A69;stop-opacity:0.4527"/>
		<stop  offset="0.6506" style="stop-color:#F26574;stop-opacity:0.3494"/>
		<stop  offset="0.7342" style="stop-color:#F37683;stop-opacity:0.2658"/>
		<stop  offset="0.8057" style="stop-color:#F58C97;stop-opacity:0.1943"/>
		<stop  offset="0.8691" style="stop-color:#F7A8B0;stop-opacity:0.1309"/>
		<stop  offset="0.9265" style="stop-color:#FAC8CD;stop-opacity:0.0735"/>
		<stop  offset="0.9774" style="stop-color:#FDECEE;stop-opacity:0.0226"/>
		<stop  offset="1" style="stop-color:#FFFFFF;stop-opacity:0"/>
	</radialGradient>
	<ellipse class="st7" cx="375.14" cy="288.03" rx="54" ry="28.53"/>
	<g>
		<path class="st8" d="M191.23,246.54c-0.15-1.8,0.05-3.66,0.6-5.42c0.13-0.45,0.24-0.91,0.41-1.35l0.55-1.29
			c0.36-0.89,0.84-1.69,1.33-2.51c2-3.26,4.84-5.99,8.03-8.13c6.44-4.26,14.29-6.1,21.86-5.63c7.58,0.43,15.03,2.98,21.04,7.63
			c1.48,1.18,2.88,2.45,4.14,3.85c1.26,1.41,2.37,2.93,3.33,4.52c0.93,1.63,1.69,3.31,2.25,5.09c0.55,1.86,0.7,3.57,0.72,5.4
			c-1.41-1.11-2.72-2.34-3.96-3.22c-1.32-0.9-2.64-1.76-3.96-2.5c-2.66-1.48-5.31-2.66-8.01-3.59c-5.36-1.87-10.86-2.89-16.33-3.21
			c-5.47-0.35-10.93,0.15-16.3,1.54c-2.69,0.7-5.34,1.69-7.96,3.07C196.37,242.2,193.79,244,191.23,246.54z"/>
	</g>
	<g>
		
			<ellipse transform="matrix(0.7071 -0.7071 0.7071 0.7071 -131.3383 273.3283)" class="st9" cx="264.27" cy="295.2" rx="10.12" ry="11.63"/>
		
			<ellipse transform="matrix(0.7071 -0.7071 0.7071 0.7071 -117.436 306.8914)" class="st9" cx="311.73" cy="295.2" rx="11.63" ry="10.12"/>
		<g>
			<path class="st10" d="M300.28,252.97l11.33,30.06c1.29,3.41,1.56,7.17,0.67,10.72c-2.83,11.25-12.59,19.55-24.2,19.55h0
				c-11.61,0-21.37-8.3-24.2-19.55c-0.89-3.55-0.61-7.31,0.67-10.72l11.33-30.06"/>
			<path class="st8" d="M300.28,252.97c2.76,5.77,5.32,11.63,7.89,17.47l3.76,8.81l0.93,2.2l0.46,1.12c0.16,0.4,0.31,0.82,0.45,1.23
				c0.54,1.66,0.87,3.4,0.97,5.17c0.09,1.76-0.05,3.56-0.44,5.3c-0.22,0.83-0.43,1.66-0.7,2.48c-0.31,0.8-0.55,1.63-0.92,2.41
				c-1.37,3.16-3.32,6.09-5.74,8.6c-4.84,5.01-11.81,7.99-18.86,8.03c-7.05-0.03-14.01-3.02-18.87-8.02
				c-2.42-2.5-4.36-5.44-5.74-8.6c-0.37-0.78-0.61-1.61-0.92-2.41c-0.27-0.82-0.48-1.65-0.7-2.48c-0.39-1.75-0.53-3.54-0.44-5.31
				c0.1-1.77,0.43-3.51,0.97-5.17c0.14-0.41,0.28-0.83,0.45-1.23l0.46-1.12l0.93-2.21l3.76-8.81c2.57-5.85,5.13-11.7,7.89-17.47
				c-1.73,6.16-3.67,12.25-5.6,18.34l-2.99,9.1l-0.76,2.27l-0.38,1.12c-0.11,0.34-0.21,0.69-0.31,1.04
				c-0.36,1.4-0.54,2.83-0.53,4.25c0.01,1.42,0.22,2.83,0.6,4.17c0.24,0.7,0.43,1.41,0.69,2.09c0.29,0.67,0.52,1.37,0.86,2.02
				c1.27,2.64,3,5.04,5.08,7.05c4.14,4.06,9.8,6.41,15.53,6.38c5.73,0.04,11.39-2.32,15.53-6.38c2.09-2.01,3.82-4.41,5.08-7.05
				c0.35-0.65,0.57-1.35,0.86-2.02c0.26-0.69,0.44-1.4,0.69-2.09c0.39-1.35,0.59-2.75,0.6-4.18c0.01-1.42-0.17-2.86-0.53-4.25
				c-0.1-0.35-0.19-0.7-0.31-1.04l-0.38-1.12l-0.75-2.27l-2.99-9.1C303.95,265.22,302.01,259.14,300.28,252.97z"/>
		</g>
	</g>
	<g>
		<g>
			<path class="st4" d="M223.26,257.57c-10.24,0-19.62-2.32-25.73-6.36c-0.12-0.08-0.27-0.12-0.44-0.13l-4.53-0.08
				c-0.74-0.01-1.42-0.37-1.82-0.95c-0.36-0.53-0.44-1.17-0.23-1.77c0.43-1.18,0.98-2.33,1.61-3.44c5.15-8.94,16.3-14.5,29.09-14.5
				c3.21,0,6.45,0.36,9.63,1.07c9.56,2.13,17.84,7.34,22.72,14.28l0.13,0.19c0.88,1.27,2.01,3.56,2.45,4.49
				c0.38,0.78,0.19,1.71-0.46,2.3c-0.76,0.69-1.77,1.07-2.84,1.07h-8.52c-0.11,0-0.22,0.02-0.32,0.07
				C238.26,256.24,230.88,257.57,223.26,257.57z"/>
			<path class="st8" d="M221.23,231.1c3.1,0,6.28,0.34,9.47,1.05c9.78,2.18,17.66,7.42,22.27,13.98c0.04,0.06,0.09,0.12,0.13,0.18
				c0.81,1.17,1.87,3.3,2.39,4.39c0.23,0.48,0.12,1.05-0.29,1.42c-0.59,0.54-1.42,0.88-2.33,0.88h-8.52c-0.21,0-0.42,0.04-0.61,0.12
				c-5.5,2.3-12.65,3.7-20.48,3.7c-10.39,0-19.6-2.45-25.31-6.24c-0.24-0.16-0.54-0.25-0.84-0.25l-4.53-0.08
				c-0.97-0.02-1.66-0.88-1.35-1.71c0.42-1.15,0.95-2.26,1.56-3.32C197.81,236.52,208.85,231.1,221.23,231.1 M221.23,229.6
				L221.23,229.6c-13.06,0-24.45,5.7-29.74,14.87c-0.66,1.14-1.22,2.33-1.67,3.55c-0.3,0.82-0.19,1.72,0.31,2.45
				c0.54,0.78,1.44,1.26,2.42,1.28l4.53,0.08c6.26,4.12,15.79,6.49,26.18,6.49c7.72,0,15.2-1.35,21.06-3.81l8.55-0.01
				c1.26,0,2.44-0.45,3.34-1.27c0.9-0.82,1.15-2.09,0.63-3.18c-0.45-0.94-1.6-3.27-2.51-4.59l-0.13-0.19
				c-4.98-7.09-13.43-12.41-23.17-14.58C227.79,229.97,224.49,229.6,221.23,229.6L221.23,229.6z"/>
		</g>
		<g>
			<defs>
				<path id="SVGID_7_" d="M255.49,250.7c0.23,0.48,0.12,1.05-0.29,1.42c-0.59,0.54-1.42,0.88-2.33,0.88h-8.52
					c-0.21,0-0.42,0.04-0.61,0.12c-5.5,2.3-12.65,3.7-20.48,3.7c-10.39,0-19.6-2.45-25.31-6.24c-0.24-0.16-0.54-0.25-0.84-0.25
					l-4.53-0.08c-0.97-0.02-1.66-0.88-1.35-1.71c0.42-1.15,0.95-2.26,1.56-3.32c6.27-10.89,21.97-16.62,37.91-13.07
					c9.78,2.18,17.66,7.42,22.27,13.98c0.04,0.06,0.09,0.12,0.13,0.18C253.9,247.48,254.97,249.62,255.49,250.7z"/>
			</defs>
			<clipPath id="SVGID_8_">
				<use xlink:href="#SVGID_7_"  style="overflow:visible;"/>
			</clipPath>
			<ellipse class="st11" cx="223.37" cy="243.69" rx="26.08" ry="23.08"/>
		</g>
		<g>
			<defs>
				<path id="SVGID_9_" d="M255.49,250.7c0.23,0.48,0.12,1.05-0.29,1.42c-0.59,0.54-1.42,0.88-2.33,0.88h-8.52
					c-0.21,0-0.42,0.04-0.61,0.12c-5.5,2.3-12.65,3.7-20.48,3.7c-10.39,0-19.6-2.45-25.31-6.24c-0.24-0.16-0.54-0.25-0.84-0.25
					l-4.53-0.08c-0.97-0.02-1.66-0.88-1.35-1.71c0.42-1.15,0.95-2.26,1.56-3.32c6.27-10.89,21.97-16.62,37.91-13.07
					c9.78,2.18,17.66,7.42,22.27,13.98c0.04,0.06,0.09,0.12,0.13,0.18C253.9,247.48,254.97,249.62,255.49,250.7z"/>
			</defs>
			<clipPath id="SVGID_10_">
				<use xlink:href="#SVGID_9_"  style="overflow:visible;"/>
			</clipPath>
			<ellipse class="st12" cx="223.37" cy="242.58" rx="15.92" ry="14.33"/>
		</g>
		<ellipse class="st13" cx="223.37" cy="242.58" rx="8.38" ry="7.54"/>
		<ellipse class="st0" cx="215.02" cy="238.7" rx="4.05" ry="1.8"/>
		<g>
			<path class="st14" d="M192.58,250.5c-0.51,0.08-1.11-0.06-1.56-0.49c-0.22-0.22-0.39-0.51-0.47-0.84
				c-0.09-0.31-0.03-0.76,0.03-0.99c0.18-0.91,0.45-1.81,0.77-2.7c0.69-1.75,1.59-3.44,2.69-5c2.21-3.14,5.25-5.63,8.56-7.54
				c3.33-1.88,7.02-3.07,10.75-3.6c3.74-0.5,7.51-0.55,11.2-0.12c1.84,0.22,3.68,0.49,5.48,0.93c1.81,0.37,3.58,0.93,5.31,1.55
				c3.46,1.28,6.76,2.99,9.73,5.15c2.98,2.15,5.61,4.77,7.72,7.74c0.51,0.75,1.05,1.51,1.46,2.33c0.42,0.81,0.81,1.62,1.17,2.44
				c0.19,0.43,0.35,0.78,0.54,1.27c0.2,0.58,0.03,1.26-0.39,1.66c-0.77,0.7-1.75,0.99-2.7,0.94v-0.5c0.82-0.04,1.63-0.42,2.12-0.97
				c0.2-0.24,0.23-0.56,0.1-0.81l-0.62-1.12c-0.43-0.77-0.88-1.53-1.35-2.25c-0.45-0.73-1-1.37-1.56-2.05
				c-2.26-2.62-4.94-4.85-7.89-6.6c-5.87-3.57-12.68-5.38-19.43-5.72c-3.38-0.13-6.77,0.21-10.01,0.99
				c-3.24,0.76-6.37,1.8-9.35,3.17c-0.76,0.31-1.46,0.73-2.2,1.09c-0.72,0.39-1.39,0.86-2.11,1.27c-0.68,0.46-1.34,0.94-2.01,1.42
				c-0.6,0.55-1.27,1.05-1.88,1.61c-1.19,1.15-2.32,2.38-3.33,3.75c-0.51,0.68-0.96,1.41-1.4,2.16c-0.11,0.18-0.14,0.18-0.17,0.31
				c-0.03,0.1-0.02,0.23,0.04,0.37c0.1,0.27,0.39,0.53,0.76,0.62L192.58,250.5z"/>
		</g>
	</g>
	<g>
		<path class="st8" d="M384.99,246.54c-2.56-2.54-5.14-4.34-7.74-5.74c-2.62-1.38-5.26-2.38-7.96-3.07
			c-5.37-1.4-10.83-1.89-16.3-1.54c-5.47,0.32-10.97,1.34-16.33,3.21c-2.7,0.93-5.35,2.12-8.01,3.59c-1.33,0.74-2.64,1.6-3.96,2.5
			c-1.25,0.88-2.55,2.11-3.96,3.22c0.03-1.83,0.17-3.54,0.72-5.4c0.56-1.79,1.31-3.46,2.25-5.09c0.96-1.59,2.07-3.12,3.33-4.52
			c1.26-1.4,2.66-2.67,4.14-3.85c6-4.65,13.46-7.2,21.04-7.63c7.57-0.46,15.43,1.38,21.86,5.63c3.19,2.14,6.03,4.88,8.03,8.13
			c0.49,0.82,0.97,1.62,1.33,2.51l0.55,1.29c0.17,0.44,0.28,0.9,0.41,1.35C384.94,242.88,385.14,244.75,384.99,246.54z"/>
	</g>
	<g>
		<g>
			<path class="st4" d="M352.97,257.57c-7.62,0-15-1.33-20.77-3.76c-0.1-0.04-0.21-0.06-0.32-0.06h-8.52
				c-1.07,0-2.08-0.38-2.83-1.07c-0.65-0.59-0.83-1.52-0.46-2.3c0.44-0.92,1.57-3.21,2.45-4.49l0.08-0.12
				c4.92-7.01,13.21-12.21,22.77-14.34c3.18-0.71,6.42-1.07,9.63-1.07c12.79,0,23.93,5.55,29.09,14.5c0.63,1.1,1.18,2.26,1.61,3.44
				c0.22,0.59,0.14,1.24-0.23,1.77c-0.4,0.58-1.08,0.94-1.82,0.95l-4.53,0.08c-0.16,0-0.32,0.05-0.44,0.13
				C372.59,255.25,363.22,257.57,352.97,257.57z"/>
			<path class="st8" d="M355.01,231.1c12.37,0,23.42,5.41,28.44,14.12c0.61,1.06,1.13,2.17,1.56,3.32c0.31,0.83-0.38,1.69-1.35,1.71
				l-4.53,0.08c-0.3,0.01-0.6,0.09-0.84,0.25c-5.71,3.78-14.92,6.24-25.31,6.24c-7.83,0-14.98-1.39-20.48-3.7
				c-0.19-0.08-0.4-0.12-0.61-0.12h-8.52c-0.91,0-1.74-0.34-2.33-0.88c-0.41-0.37-0.52-0.94-0.29-1.42
				c0.52-1.09,1.59-3.22,2.39-4.39c0.04-0.06,0.08-0.12,0.13-0.18c4.61-6.56,12.49-11.79,22.27-13.98
				C348.73,231.44,351.91,231.1,355.01,231.1 M355.01,229.6c-3.27,0-6.56,0.37-9.8,1.09c-9.74,2.17-18.19,7.49-23.17,14.58
				c-0.05,0.07-0.1,0.14-0.14,0.21c-0.9,1.3-2.05,3.63-2.5,4.58c-0.52,1.08-0.27,2.36,0.63,3.18c0.9,0.82,2.08,1.27,3.34,1.27h8.52
				c5.9,2.47,13.38,3.82,21.09,3.82c10.39,0,19.92-2.36,26.14-6.48l4.56-0.08c0.98-0.02,1.89-0.49,2.42-1.28
				c0.5-0.73,0.61-1.63,0.31-2.45c-0.45-1.22-1.01-2.41-1.67-3.55C379.46,235.3,368.06,229.6,355.01,229.6L355.01,229.6z"/>
		</g>
		<g>
			<defs>
				<path id="SVGID_11_" d="M320.75,250.7c-0.23,0.48-0.12,1.05,0.29,1.42c0.59,0.54,1.42,0.88,2.33,0.88h8.52
					c0.21,0,0.42,0.04,0.61,0.12c5.5,2.3,12.65,3.7,20.48,3.7c10.39,0,19.6-2.45,25.31-6.24c0.24-0.16,0.54-0.25,0.84-0.25
					l4.53-0.08c0.97-0.02,1.66-0.88,1.35-1.71c-0.42-1.15-0.95-2.26-1.56-3.32c-6.27-10.89-21.97-16.62-37.91-13.07
					c-9.78,2.18-17.66,7.42-22.27,13.98c-0.04,0.06-0.09,0.12-0.13,0.18C322.33,247.48,321.27,249.62,320.75,250.7z"/>
			</defs>
			<clipPath id="SVGID_12_">
				<use xlink:href="#SVGID_11_"  style="overflow:visible;"/>
			</clipPath>
			<ellipse class="st15" cx="352.86" cy="243.69" rx="26.08" ry="23.08"/>
		</g>
		<g>
			<defs>
				<path id="SVGID_13_" d="M320.75,250.7c-0.23,0.48-0.12,1.05,0.29,1.42c0.59,0.54,1.42,0.88,2.33,0.88h8.52
					c0.21,0,0.42,0.04,0.61,0.12c5.5,2.3,12.65,3.7,20.48,3.7c10.39,0,19.6-2.45,25.31-6.24c0.24-0.16,0.54-0.25,0.84-0.25
					l4.53-0.08c0.97-0.02,1.66-0.88,1.35-1.71c-0.42-1.15-0.95-2.26-1.56-3.32c-6.27-10.89-21.97-16.62-37.91-13.07
					c-9.78,2.18-17.66,7.42-22.27,13.98c-0.04,0.06-0.09,0.12-0.13,0.18C322.33,247.48,321.27,249.62,320.75,250.7z"/>
			</defs>
			<clipPath id="SVGID_14_">
				<use xlink:href="#SVGID_13_"  style="overflow:visible;"/>
			</clipPath>
			<ellipse class="st16" cx="352.86" cy="242.58" rx="15.92" ry="14.33"/>
		</g>
		<ellipse class="st13" cx="352.86" cy="242.58" rx="8.38" ry="7.54"/>
		<g>
			<path class="st14" d="M383.65,250c0.38-0.09,0.66-0.35,0.76-0.62c0.05-0.13,0.06-0.26,0.04-0.37c-0.03-0.13-0.06-0.13-0.17-0.31
				c-0.44-0.75-0.89-1.48-1.4-2.16c-1.01-1.37-2.14-2.61-3.33-3.75c-0.6-0.56-1.28-1.06-1.88-1.61c-0.67-0.48-1.33-0.97-2.01-1.42
				c-0.72-0.41-1.38-0.88-2.11-1.27c-0.74-0.36-1.44-0.78-2.2-1.09c-2.98-1.37-6.11-2.41-9.35-3.17c-3.24-0.78-6.62-1.13-10.01-0.99
				c-6.75,0.33-13.56,2.15-19.43,5.72c-2.95,1.75-5.63,3.98-7.89,6.6c-0.55,0.68-1.11,1.32-1.56,2.05
				c-0.47,0.73-0.91,1.49-1.35,2.25l-0.62,1.12c-0.12,0.25-0.09,0.57,0.1,0.81c0.49,0.56,1.3,0.94,2.12,0.97v0.5
				c-0.95,0.04-1.93-0.24-2.7-0.94c-0.42-0.4-0.59-1.08-0.39-1.66c0.19-0.49,0.35-0.85,0.54-1.27c0.37-0.82,0.75-1.63,1.17-2.44
				c0.42-0.82,0.95-1.59,1.46-2.33c2.12-2.97,4.75-5.59,7.72-7.74c2.98-2.15,6.27-3.86,9.73-5.15c1.74-0.62,3.5-1.18,5.31-1.55
				c1.8-0.44,3.63-0.71,5.48-0.93c3.69-0.43,7.46-0.38,11.2,0.12c3.74,0.53,7.42,1.72,10.75,3.6c3.31,1.9,6.35,4.39,8.56,7.54
				c1.11,1.56,2.01,3.25,2.69,5c0.31,0.89,0.59,1.79,0.77,2.7c0.06,0.23,0.12,0.67,0.03,0.99c-0.08,0.34-0.25,0.63-0.47,0.84
				c-0.45,0.43-1.05,0.57-1.56,0.49L383.65,250z"/>
		</g>
		<ellipse class="st0" cx="344.48" cy="238.7" rx="4.05" ry="1.8"/>
	</g>
	<g>
		<path class="st8" d="M202.68,259.09c3.28,1.59,6.67,2.77,10.14,3.55c3.47,0.76,7.01,1.15,10.55,1.14
			c3.54,0.01,7.08-0.38,10.55-1.14c3.47-0.78,6.86-1.95,10.14-3.54c-2.84,2.3-6.21,3.96-9.74,5.05c-3.53,1.11-7.25,1.61-10.95,1.63
			c-3.7-0.02-7.42-0.53-10.95-1.64C208.9,263.04,205.52,261.39,202.68,259.09z"/>
	</g>
	<g>
		<path class="st8" d="M332.16,259.09c3.28,1.59,6.67,2.77,10.14,3.55c3.47,0.76,7.01,1.15,10.55,1.14
			c3.54,0.01,7.08-0.38,10.55-1.14c3.47-0.78,6.86-1.95,10.14-3.54c-2.84,2.3-6.21,3.96-9.74,5.05c-3.53,1.11-7.25,1.61-10.95,1.63
			c-3.7-0.02-7.42-0.53-10.95-1.64C338.37,263.04,335,261.39,332.16,259.09z"/>
	</g>
	<path class="st17" d="M351.4,342.34c0,17.57-28.39,31.82-63.4,31.82s-63.4-14.25-63.4-31.82
		C224.6,324.77,351.4,324.77,351.4,342.34z"/>
	<g>
		<defs>
			<path id="SVGID_15_" d="M351.4,342.34c0,17.57-28.39,31.82-63.4,31.82s-63.4-14.25-63.4-31.82
				C224.6,324.77,351.4,324.77,351.4,342.34z"/>
		</defs>
		<clipPath id="SVGID_16_">
			<use xlink:href="#SVGID_15_"  style="overflow:visible;"/>
		</clipPath>
		<g class="st18">
			<path class="st0" d="M234.3,327.5v24c16.61,1.5,34.76,2.33,53.76,2.33c18.96,0,37.05-0.82,53.63-2.32V327.5H234.3z"/>
		</g>
	</g>
	<line class="st19" x1="288.07" y1="329.16" x2="288.07" y2="374.16"/>
	<line class="st19" x1="262.87" y1="330.13" x2="262.87" y2="371.56"/>
	<line class="st19" x1="244.87" y1="332.38" x2="244.87" y2="365.66"/>
	<line class="st19" x1="313.27" y1="330.14" x2="313.27" y2="371.53"/>
	<line class="st19" x1="331.27" y1="332.38" x2="331.27" y2="365.66"/>
	<path class="st9" d="M351.4,342.34c0,17.57-28.39,31.82-63.4,31.82s-63.4-14.25-63.4-31.82C224.6,324.77,351.4,324.77,351.4,342.34
		z"/>
</g>
<g id="Layer_7">
	<path class="st1" d="M150.8,197.44C147.3,47.13,360.69,5.45,415.75,144.59c3.66,7.82,16.77,56.6,5.46,53.71
		c-7.02-14.84-14.03-6.46-23.66-18.98c-46.34-63.75-141.77-74.99-199.52-20.82c-18.68,16.48-32.08,16.02-42.83,38.94
		C154.8,199.92,150.9,200.23,150.8,197.44z"/>
</g>
<g id="Layer_4_copy">
	<path class="st20" d="M472.36,113.43c-1.21-0.91-2.93-0.66-3.83,0.55l-0.05,0.07c-3.41,4.55-7.02,8.82-11.04,12.66
		c-3.94,3.89-8.14,7.44-12.5,10.61c-4.37,3.16-8.86,6-13.49,8.27c-4.6,2.31-9.27,4.15-13.87,5.26c-2.28,0.63-4.55,0.97-6.75,1.26
		c-1.1,0.06-2.19,0.23-3.25,0.2l-1.58,0.03l-1.55-0.08c-4.09-0.16-7.73-1.18-10.99-2.62l-2.84-1.32c-0.49-0.24-1.03-0.47-1.48-0.71
		l-1.22-0.71c-1.61-0.98-3.14-2.1-4.66-3.31c-3.05-2.47-6.03-5.48-9.09-9.12c-3.06-3.6-6.03-7.91-9.14-12.68
		c-3.14-4.78-6.42-10.01-10.65-15.37c-4.19-5.31-9.44-10.76-16.12-15.39c-0.83-0.57-1.67-1.11-2.51-1.65
		c-0.19-0.13-0.46-0.29-0.73-0.45l-0.8-0.47l-1.62-0.92c-2.16-1.16-4.38-2.21-6.53-3.02c-4.33-1.68-8.58-2.76-12.73-3.42
		c-5.8-0.88-11.44-1.03-16.94-0.59c2.97-1.35,6.09-2.5,9.34-3.38c8.28-2.28,17.36-2.89,26.53-1.6c-8.06-4.53-17.35-7.58-27.22-8.63
		c-9.86-1.06-20.27-0.11-30.37,2.98c-3.23,0.99-6.42,2.22-9.56,3.64c2.99-5.58,6.94-10.87,11.82-15.5
		c6.22-5.92,13.93-10.77,22.62-13.97c-9.25-0.17-18.88,1.53-28.06,5.28c-9.19,3.74-17.91,9.49-25.35,17
		c-6.74,6.8-12.41,15.05-16.51,24.32c-5.02-2.22-10.18-3.89-15.37-5.02c-10.33-2.24-20.78-2.32-30.52-0.45
		c-9.75,1.86-18.75,5.68-26.41,10.86c9.03-2.05,18.13-2.19,26.58-0.61c8.3,1.54,15.94,4.72,22.46,9.03
		c-2.16-0.01-4.32,0.1-6.47,0.34c-6.34,0.76-12.61,2.5-18.77,5.64c-3.08,1.57-6.12,3.51-9.07,6.02c-0.73,0.59-1.47,1.29-2.19,1.98
		c-0.73,0.68-1.43,1.4-2.11,2.17l-1.02,1.14c-0.33,0.37-0.52,0.64-0.78,0.97c-0.49,0.62-0.98,1.25-1.45,1.89
		c-3.77,5.09-6.35,10.51-7.94,15.39c-1.64,4.93-2.67,9.58-3.63,13.76c-0.94,4.15-1.91,7.9-3.08,11.17
		c-1.16,3.22-2.36,5.96-3.64,8.32c-0.34,0.54-0.63,1.17-0.96,1.72c-0.34,0.5-0.68,1.02-1.02,1.56c-0.14,0.28-0.4,0.52-0.62,0.78
		l-0.67,0.78c-0.44,0.55-0.91,1.05-1.39,1.55l-0.34,0.38l-0.29,0.3l-0.58,0.63c-0.43,0.34-0.82,0.81-1.3,1.13
		c-0.89,0.78-1.97,1.34-3.11,1.99c-2.34,1.16-5.21,2.04-8.45,2.34c-1.61,0.22-3.32,0.23-5.07,0.23c-1.75-0.07-3.56-0.2-5.39-0.47
		c-3.68-0.47-7.44-1.41-11.21-2.62c-3.77-1.22-7.52-2.77-11.19-4.63c-3.72-1.8-7.24-4.03-10.72-6.48l-0.09-0.06
		c-0.78-0.55-1.84-0.65-2.74-0.17c-1.27,0.68-1.74,2.26-1.06,3.53c4.35,8.09,10.39,15.44,17.73,21.65c3.66,3.14,7.69,5.95,12.1,8.42
		c4.18,2.33,8.73,4.28,13.71,5.69c-0.92,2.5-1.69,5-2.37,7.49c-0.35,1.45-0.67,2.92-0.97,4.37l-0.72,4.28l-0.08,0.54l-0.05,0.47
		l-0.1,0.94l-0.19,1.88c-0.13,1.25-0.21,2.51-0.28,3.76c-0.22,5.04-0.11,10.11,0.5,15.17c1.21,10.12,4.11,20.23,9.2,29.63
		c2.52,4.7,5.6,9.21,9.29,13.34c3.66,4.13,8,7.89,12.92,10.88c2.44,1.49,5.09,2.78,7.79,3.78c2.81,0.93,5.51,1.78,8.44,2.05
		c5.67,0.74,11.53-0.19,16.11-3.01l1.08-0.67c0.36-0.23,0.64-0.59,0.74-1.05c0.19-0.88-0.37-1.76-1.26-1.95
		c-7.02-1.51-13.07-5.9-17.27-11.74c-4.37-5.72-7.25-12.61-9.07-19.7c-1.76-7.13-2.74-14.51-2.73-21.92c0-3.7,0.21-7.41,0.61-11.1
		c0.19-1.84,0.46-3.69,0.75-5.51l0.5-2.67l0.63-2.63c1.7-7,4.9-13.46,9.43-19.12c4.51-5.71,10.22-10.62,15.87-15.8
		c5.69-5.14,11.51-10.39,16.76-16.21c5.2-5.87,9.94-12.18,13.82-18.96c0.2-0.35,0.27-0.77,0.16-1.19c-0.22-0.85-1.09-1.37-1.94-1.15
		l-1.33,0.34c-1.04,0.27-2.04,0.53-3.02,0.8c0.06-0.07,0.12-0.15,0.18-0.22c0.18-0.21,0.34-0.45,0.51-0.68l0.21-0.31
		c0.02-0.02,0.03-0.05,0.04-0.08c0.02-0.06,0.03-0.13,0.08-0.21c0.04-0.07,0.04-0.17,0.12-0.28c0.19-0.44,0.58-1.13,1.11-1.9
		c1.04-1.59,2.67-3.46,4.52-5.35c1.87-1.87,3.97-3.79,6.21-5.63c2.29-1.83,4.6-3.64,7.59-5.1c0.55-0.27,1.13-0.5,1.73-0.71
		c0.31,1.32,0.59,2.64,0.79,3.96l9.76-4.23l0.21,0.05c0.09,0.02,0.19,0.04,0.29,0.05c1.41,0.19,2.72-0.56,3.33-1.76l21.98-9.53
		c4.3-0.12,8.28,0.38,12.29,1.13c4.14,0.79,8.21,1.87,12.03,3.13c1.91,0.66,3.75,1.3,5.48,2.04c0.85,0.38,1.71,0.7,2.5,1.12
		c0.82,0.35,1.55,0.76,2.28,1.14c1.43,0.77,2.66,1.53,3.61,2.15c0.5,0.32,0.84,0.59,1.21,0.83l0.24,0.18
		c0.04,0.03,0.08,0.06,0.13,0.08c0.04,0.02,0.08,0.04,0.19,0.12c0.36,0.25,0.72,0.5,1.1,0.73c2.83,1.89,6.26,4.09,10.25,6.9
		c3.97,2.74,8.42,6.07,13.08,9.76c4.7,3.71,9.61,7.82,15.01,12.04c5.38,4.2,11.52,8.35,18.42,11.71c3.46,1.67,7.13,3.08,10.88,4.22
		l2.84,0.79c0.91,0.23,1.76,0.39,2.64,0.59c0.85,0.19,1.79,0.37,2.71,0.54c0.93,0.17,1.82,0.35,2.77,0.5
		c1.91,0.27,3.83,0.45,5.74,0.55c2.56,3.33,5.2,6.58,7.81,9.78l3.59,4.45c1.19,1.48,2.38,2.94,3.51,4.43
		c2.28,2.97,4.39,5.99,6.19,9.14c3.62,6.29,5.8,13.15,6.43,20.33l0.23,2.69l0.09,2.72c0.01,1.84,0,3.71-0.09,5.56
		c-0.16,3.71-0.52,7.4-1.08,11.06c-1.12,7.33-3.2,14.47-6.02,21.25c-2.87,6.74-6.77,13.11-11.96,18.1
		c-5.04,5.13-11.69,8.55-18.86,8.98c-0.43,0.03-0.85,0.22-1.15,0.58c-0.58,0.69-0.5,1.73,0.19,2.31l0.96,0.81
		c4.1,3.47,9.74,5.26,15.45,5.38c2.93,0.17,5.74-0.25,8.64-0.75c2.82-0.58,5.63-1.45,8.26-2.56c5.31-2.21,10.16-5.27,14.4-8.79
		c4.27-3.52,7.98-7.51,11.19-11.76c6.44-8.51,10.87-18.05,13.6-27.86c1.38-4.91,2.27-9.9,2.81-14.91c0.15-1.25,0.25-2.51,0.31-3.76
		l0.1-1.88l0.05-0.94l0.02-0.47l0.01-0.54c0.02-1.45-0.02-2.89-0.05-4.34c-0.07-1.48-0.18-2.98-0.29-4.46
		c-0.32-3.01-0.8-6.05-1.46-9.13c-0.72-3.05-1.61-6.11-2.7-9.09c-2.23-5.95-5.23-11.52-8.61-16.22c-0.85-1.13-1.7-2.29-2.56-3.38
		c-0.87-1.04-1.77-2.1-2.65-3.07c-1.75-1.96-3.58-3.71-5.34-5.31c-2.47-2.2-4.89-4.1-7.28-5.79c1.32-0.66,2.61-1.35,3.85-2.1
		c5.97-3.5,11.24-7.61,15.97-12.05c4.72-4.46,8.92-9.25,12.62-14.32c7.42-10.07,13.04-21.2,16.32-32.84
		C473.65,115.3,473.29,114.12,472.36,113.43z"/>
	<path class="st21" d="M471.28,140.92c-1.11-1.02-2.84-0.95-3.87,0.16l-0.06,0.07c-3.85,4.18-7.88,8.07-12.26,11.48
		c-4.31,3.47-8.85,6.58-13.51,9.3c-4.67,2.7-9.42,5.08-14.26,6.87c-4.81,1.83-9.64,3.2-14.33,3.84c-2.33,0.39-4.62,0.51-6.84,0.57
		c-1.1-0.05-2.2,0.01-3.25-0.13l-1.58-0.13l-1.53-0.24c-4.05-0.58-7.57-1.96-10.67-3.72l-2.69-1.6c-0.47-0.29-0.98-0.58-1.4-0.86
		l-1.14-0.82c-1.5-1.14-2.91-2.4-4.3-3.76c-2.79-2.76-5.44-6.06-8.12-9.99c-2.69-3.89-5.2-8.48-7.82-13.54
		c-2.64-5.07-5.38-10.61-9.04-16.37c-3.63-5.71-8.31-11.66-14.48-16.94c-0.76-0.65-1.55-1.27-2.33-1.9
		c-0.18-0.14-0.42-0.33-0.68-0.52l-0.75-0.55l-1.52-1.08c-2.03-1.37-4.13-2.64-6.19-3.66c-4.14-2.1-8.25-3.61-12.32-4.69
		c-8.13-2.09-16.09-2.7-23.89-2.12c-7.8,0.61-15.48,2.37-22.79,5.62c-1.82,0.77-3.62,1.74-5.37,2.69l-2.6,1.59
		c-0.85,0.52-1.7,1.16-2.52,1.74c-3.3,2.42-6.38,5.25-8.96,8.52c-3.42,4.29-5.84,9.45-6.68,14.58c-2.22-3.14-5.4-5.84-9.03-7.69
		c-6.16-3.14-13.2-4.25-19.7-3.9c-6.58,0.3-12.82,1.94-18.67,4.5c-5.82,2.61-11.29,6.15-16.23,10.98c-2.47,2.41-4.8,5.18-6.87,8.45
		c-0.53,0.78-1.02,1.67-1.5,2.54c-0.49,0.86-0.95,1.76-1.36,2.7l-0.63,1.39c-0.2,0.45-0.3,0.76-0.46,1.15
		c-0.28,0.74-0.56,1.49-0.82,2.24c-2.08,5.98-2.92,11.93-2.99,17.06c-0.1,5.19,0.31,9.94,0.64,14.22c0.34,4.24,0.53,8.11,0.39,11.58
		c-0.15,3.42-0.48,6.39-0.99,9.02c-0.16,0.62-0.25,1.3-0.4,1.93c-0.18,0.58-0.35,1.17-0.51,1.79c-0.05,0.31-0.22,0.61-0.36,0.93
		l-0.41,0.94c-0.26,0.65-0.56,1.27-0.86,1.89l-0.21,0.47l-0.19,0.37l-0.37,0.77c-0.31,0.45-0.54,1.02-0.9,1.47
		c-0.62,1.01-1.48,1.87-2.38,2.82c-1.89,1.8-4.36,3.5-7.37,4.75c-1.47,0.69-3.1,1.21-4.78,1.73c-1.7,0.45-3.45,0.87-5.29,1.16
		c-3.66,0.65-7.52,0.87-11.48,0.84c-3.96-0.05-8.01-0.41-12.06-1.09c-4.09-0.61-8.11-1.68-12.17-2.99l-0.1-0.03
		c-0.91-0.29-1.95-0.07-2.66,0.66c-1.01,1.03-0.99,2.68,0.04,3.69c6.56,6.43,14.52,11.64,23.38,15.38c4.43,1.9,9.11,3.39,14.06,4.43
		c4.95,1.03,10.17,1.55,15.67,1.32c5.47-0.23,11.25-1.35,16.97-3.57c0.71-0.29,1.42-0.61,2.13-0.93c0.71-0.31,1.41-0.65,2.1-1.03
		l2.08-1.13l2.02-1.27c1.37-0.83,2.62-1.86,3.92-2.83l1.84-1.58l0.92-0.81c0.29-0.27,0.54-0.52,0.81-0.78
		c1.06-1.05,2.1-2.12,3.06-3.24l1.48-1.68c0.49-0.57,0.99-1.11,1.43-1.76c0.91-1.25,1.81-2.52,2.7-3.81
		c0.83-1.29,1.57-2.6,2.32-3.93c2.85-5.29,4.91-10.64,6.51-15.65c1.55-4.97,2.96-9.64,4.42-13.93c1.44-4.27,2.94-8.06,4.31-11.35
		c1.35-3.36,2.54-5.81,3.34-7.95c0.11-0.26,0.2-0.53,0.28-0.8l0.11-0.36c0.01-0.03,0.01-0.06,0.02-0.09c0-0.06-0.01-0.13,0.01-0.22
		c0.02-0.08-0.02-0.17,0.03-0.31c0.05-0.48,0.22-1.25,0.5-2.15c0.52-1.83,1.52-4.09,2.72-6.46c1.23-2.34,2.66-4.8,4.25-7.22
		c1.64-2.42,3.31-4.85,5.73-7.13c1.22-1.15,2.63-2.16,4.47-3.01c1.82-0.82,4.03-1.38,6.75-1.58l0.43-0.03
		c0.1-0.01,0.19-0.02,0.29-0.04c0.59-0.1,1.1-0.36,1.53-0.72c0.9,0.39,1.97,0.38,2.88-0.15l0.27-0.16
		c5.76-3.33,10.69-3.97,15.16-3.75c4.51,0.28,8.58,1.21,12.67,2.41c4.04,1.2,7.98,2.69,11.65,4.33c1.83,0.85,3.6,1.67,5.25,2.58
		c0.81,0.47,1.63,0.87,2.37,1.36c0.78,0.43,1.47,0.91,2.16,1.36c1.34,0.91,2.49,1.79,3.37,2.51c0.47,0.37,0.78,0.68,1.12,0.95
		l0.22,0.21c0.04,0.03,0.08,0.06,0.12,0.09c0.04,0.02,0.08,0.05,0.18,0.14c0.33,0.29,0.67,0.57,1.02,0.83
		c2.62,2.17,5.82,4.7,9.5,7.9c3.68,3.13,7.76,6.89,12.03,11.03c4.3,4.16,8.77,8.75,13.72,13.49c4.93,4.72,10.62,9.47,17.14,13.51
		c3.28,2.01,6.78,3.78,10.4,5.29l2.74,1.07c0.89,0.32,1.71,0.57,2.57,0.85c0.83,0.27,1.74,0.55,2.64,0.81
		c0.9,0.26,1.78,0.53,2.7,0.78c7.81,1.91,15.85,2.42,23.32,1.42l2.79-0.4l2.72-0.55c1.82-0.34,3.55-0.88,5.3-1.33
		c3.43-1.07,6.77-2.26,9.89-3.72c6.29-2.88,11.95-6.43,17.11-10.38c5.15-3.96,9.81-8.3,14-12.97c8.4-9.27,15.11-19.77,19.55-31.02
		C472.38,142.92,472.14,141.71,471.28,140.92z"/>
	<path class="st22" d="M244.8,134.39c-3.32-2.73-7.41-4.4-11.63-4.72c-4.22-0.34-8.47,0.38-12.44,1.82
		c-7.95,2.87-15.09,8.02-20.39,14.55c-2.7,3.25-4.78,6.88-6.09,10.9c-1.42,3.98-2.45,8.11-3.17,12.33
		c-1.53,8.41-2.26,17.03-4.05,25.53c-0.91,4.25-2.14,8.45-3.87,12.46c-0.47,0.99-0.9,1.99-1.4,2.97l-1.65,2.84
		c-0.55,0.95-1.26,1.79-1.88,2.68c-0.63,0.9-1.31,1.75-2,2.59c-2.78,3.39-6.32,6.13-10.15,8.22c-3.88,2.02-8.06,3.43-12.35,4.15
		c-4.29,0.76-8.65,0.94-12.97,0.69c-4.33-0.23-8.62-0.9-12.82-1.9c-8.4-2-16.51-5.31-23.79-9.94c-0.05-0.03-0.06-0.09-0.03-0.14
		c0.03-0.05,0.09-0.06,0.14-0.03c7.33,4.5,15.45,7.66,23.82,9.52c4.19,0.93,8.45,1.53,12.73,1.69c4.27,0.18,8.57-0.07,12.75-0.88
		c4.19-0.76,8.25-2.18,11.99-4.18c3.69-2.08,7.06-4.74,9.71-8.05c0.67-0.83,1.32-1.66,1.92-2.54c0.59-0.88,1.28-1.7,1.79-2.62
		l1.56-2.76c0.47-0.95,0.88-1.93,1.32-2.89c1.63-3.91,2.79-8.03,3.63-12.21c1.64-8.39,2.24-16.99,3.66-25.55
		c0.7-4.28,1.7-8.55,3.16-12.68c1.37-4.17,3.67-8.13,6.5-11.48c2.83-3.38,6.15-6.3,9.75-8.79c3.63-2.45,7.54-4.51,11.74-5.81
		c4.17-1.33,8.62-1.93,12.99-1.41c4.36,0.57,8.52,2.49,11.66,5.47c0.04,0.04,0.04,0.1,0,0.14
		C244.9,134.42,244.84,134.43,244.8,134.39z"/>
</g>
<g id="Layer_5">
	<g>
		<g class="st23">
			<path class="st0" d="M423.95,220.35h-7.08c-0.55,0-1.06,0.12-1.53,0.33c-3.76-5.55-10.12-9.21-17.31-9.21h-76.21
				c-8.61,0-16.02,5.24-19.21,12.71c-4.17-2.61-9.22-4.14-14.65-4.14s-10.48,1.53-14.65,4.14c-3.19-7.47-10.6-12.71-19.22-12.71
				h-76.21c-7.19,0-13.55,3.66-17.3,9.21c-0.47-0.21-0.99-0.33-1.53-0.33h-7.08c-2.07,0-3.74,1.67-3.74,3.73v7.08
				c0,2.06,1.67,3.73,3.74,3.73H157v10.4c0,24.45,19.9,44.35,44.35,44.35h29.28c24.45,0,44.35-19.9,44.35-44.35v-11
				c3.1-3.21,7.76-5.25,12.98-5.25c5.21,0,9.88,2.04,12.98,5.25v11c0,24.45,19.89,44.35,44.35,44.35h29.27
				c24.46,0,44.35-19.9,44.35-44.35v-10.4h5.04c2.06,0,3.73-1.67,3.73-3.73v-7.08C427.68,222.02,426.01,220.35,423.95,220.35z
				 M266.98,245.29c0,20.04-16.31,36.35-36.35,36.35h-29.28c-20.04,0-36.35-16.31-36.35-36.35v-12.93c0-7.11,5.78-12.89,12.88-12.89
				h76.21c6.33,0,11.61,4.58,12.68,10.61c0.14,0.74,0.21,1.5,0.21,2.28V245.29z M410.91,245.29c0,20.04-16.3,36.35-36.35,36.35
				h-29.27c-20.05,0-36.35-16.31-36.35-36.35v-12.93c0-0.78,0.07-1.54,0.21-2.28c1.07-6.03,6.35-10.61,12.67-10.61h76.21
				c7.1,0,12.88,5.78,12.88,12.89V245.29z"/>
		</g>
		<g class="st24">
			<path class="st14" d="M398.03,211.47c7.19,0,13.55,3.66,17.31,9.21c0.47-0.21,0.98-0.33,1.53-0.33h7.08
				c2.06,0,3.73,1.67,3.73,3.73v7.08c0,2.06-1.67,3.73-3.73,3.73h-5.04v10.4c0,24.45-19.89,44.35-44.35,44.35h-29.27
				c-24.46,0-44.35-19.9-44.35-44.35v-11c-3.1-3.21-7.77-5.25-12.98-5.25c-5.22,0-9.88,2.04-12.98,5.25v11
				c0,24.45-19.9,44.35-44.35,44.35h-29.28c-24.45,0-44.35-19.9-44.35-44.35v-10.4h-5.03c-2.07,0-3.74-1.67-3.74-3.73v-7.08
				c0-2.06,1.67-3.73,3.74-3.73h7.08c0.54,0,1.06,0.12,1.53,0.33c3.75-5.55,10.11-9.21,17.3-9.21h76.21
				c8.62,0,16.03,5.24,19.22,12.71c4.17-2.61,9.22-4.14,14.65-4.14s10.48,1.53,14.65,4.14c3.19-7.47,10.6-12.71,19.21-12.71H398.03
				 M345.29,281.64h29.27c20.05,0,36.35-16.31,36.35-36.35v-12.93c0-7.11-5.78-12.89-12.88-12.89h-76.21
				c-6.32,0-11.6,4.58-12.67,10.61c-0.14,0.74-0.21,1.5-0.21,2.28v12.93C308.94,265.33,325.24,281.64,345.29,281.64 M201.35,281.64
				h29.28c20.04,0,36.35-16.31,36.35-36.35v-12.93c0-0.78-0.07-1.54-0.21-2.28c-1.07-6.03-6.35-10.61-12.68-10.61h-76.21
				c-7.1,0-12.88,5.78-12.88,12.89v12.93C165,265.33,181.31,281.64,201.35,281.64 M398.03,209.47h-76.21
				c-8.42,0-16.08,4.61-20.07,11.91c-4.19-2.19-8.92-3.34-13.79-3.34c-4.87,0-9.59,1.15-13.79,3.34
				c-3.99-7.3-11.65-11.91-20.08-11.91h-76.21c-7.12,0-13.79,3.31-18.12,8.92c-0.24-0.03-0.47-0.04-0.71-0.04h-7.08
				c-3.17,0-5.74,2.57-5.74,5.73v7.08c0,3.16,2.57,5.73,5.74,5.73H155v8.4c0,25.56,20.79,46.35,46.35,46.35h29.28
				c25.56,0,46.35-20.79,46.35-46.35v-10.16c2.82-2.61,6.78-4.09,10.98-4.09c4.2,0,8.16,1.48,10.98,4.09v10.16
				c0,25.56,20.79,46.35,46.35,46.35h29.27c25.56,0,46.35-20.79,46.35-46.35v-8.4h3.04c3.16,0,5.73-2.57,5.73-5.73v-7.08
				c0-3.16-2.57-5.73-5.73-5.73h-7.08c-0.24,0-0.48,0.02-0.72,0.04C411.82,212.78,405.15,209.47,398.03,209.47L398.03,209.47z
				 M345.29,279.64c-18.94,0-34.35-15.41-34.35-34.35v-12.93c0-0.65,0.06-1.29,0.18-1.91c0.93-5.21,5.43-8.98,10.7-8.98h76.21
				c6,0,10.88,4.89,10.88,10.89v12.93c0,18.94-15.41,34.35-34.35,34.35H345.29L345.29,279.64z M201.35,279.64
				c-18.94,0-34.35-15.41-34.35-34.35v-12.93c0-6,4.88-10.89,10.88-10.89h76.21c5.29,0,9.79,3.77,10.71,8.96
				c0.12,0.64,0.18,1.28,0.18,1.93v12.93c0,18.94-15.41,34.35-34.35,34.35H201.35L201.35,279.64z"/>
		</g>
	</g>
</g>
<g id="Layer_8">
	<path class="st25" d="M245.6,134.6c0.78-3.24,1.88-6.47,3.45-9.55c0.37-0.79,0.78-1.55,1.24-2.29c0.44-0.75,0.89-1.51,1.36-2.27
		c1-1.45,2.03-2.92,3.22-4.29c1.13-1.42,2.42-2.73,3.76-4.02c1.39-1.22,2.8-2.49,4.37-3.59c3.08-2.26,6.56-4.16,10.35-5.61
		c3.79-1.43,7.89-2.36,12.19-2.74c4.3-0.36,8.76,0.06,13.18,1.06c8.88,1.99,17.26,7.17,23.42,13.92c3.12,3.37,5.62,7.09,7.81,10.91
		c1.02,1.92,2,3.89,2.76,5.86c0.39,0.98,0.84,1.98,1.17,2.97l1,2.98c0.36,1.04,0.58,1.9,0.82,2.79l0.73,2.68
		c0.47,1.73,0.88,3.3,1.24,5.27c0.77,3.81,1.24,7.38,1.66,10.75c0.46,3.41,0.62,6.52,0.91,9.48c0.25,2.97,0.56,5.59,0.92,8.07
		c0.32,2.45,0.73,4.57,1.21,6.48c0.45,1.88,1.04,3.44,1.61,4.87l-0.84-1.71c1.11,2.06,1.99,2.95,3.55,3.95
		c0.77,0.53,1.82,1.04,3.15,1.44c1.33,0.42,2.93,0.65,4.72,0.89c1.79,0.21,3.78,0.25,5.86,0.12c2.07-0.15,4.26-0.36,6.48-0.72
		c2.22-0.37,4.46-0.89,6.68-1.54c2.24-0.58,4.46-1.3,6.57-2.13l-1.31,0.85l2.96-1.62c0.5-0.26,0.98-0.53,1.49-0.78
		c0.55-0.25,1.09-0.49,1.65-0.72l1.65-0.68c0.55-0.23,1.09-0.45,1.72-0.63c1.21-0.39,2.42-0.76,3.63-1.1
		c5.03-1.26,10.89-1.69,16.23-0.48c1.33,0.27,2.58,0.68,3.85,1.05c1.21,0.43,2.37,0.91,3.51,1.39c1.05,0.53,2.14,1.06,3.12,1.62
		c0.93,0.58,1.93,1.14,2.75,1.76c3.41,2.44,6,4.91,8.19,7.04l2.91,2.97l2.18,2.13c1.23,1.17,1.51,1.88,3.34,2.1
		c1.76,0.12,4.38-0.94,6.86-2.47c2.59-1.46,5.05-3.5,7.71-5.48l0.38-0.28c0.51-0.38,1.23-0.27,1.61,0.24
		c0.29,0.39,0.29,0.9,0.06,1.29c-1.67,2.72-3.35,5.45-5.45,7.93c-2.07,2.48-4.44,4.9-7.6,6.43l-1.2,0.53
		c-0.39,0.19-0.85,0.26-1.27,0.39c-0.43,0.1-0.85,0.27-1.3,0.3l-1.34,0.13c-1.78,0.06-3.58-0.18-5.2-0.73
		c-3.29-1.04-6.08-2.78-8.77-4.43c-2.68-1.68-5.27-3.37-7.95-4.71c-2.67-1.35-5.45-2.34-8.28-2.61c-2.83-0.29-5.67,0.12-8.39,1.07
		c-2.72,1-5.27,2.53-7.72,4.23l-0.09,0.06l-0.08,0.05c-5.35,3.2-11.08,5.69-17.05,7.46c-5.96,1.76-12.18,2.84-18.5,2.84
		c-6.29-0.01-12.77-1.15-18.59-4.11c-2.89-1.48-5.58-3.41-7.9-5.7c-2.33-2.29-4.28-4.94-5.85-7.76l-0.06-0.1l-0.04-0.09
		c-1.26-3-2.26-6.08-2.97-9.21c-0.67-3.13-1.16-6.27-1.46-9.41c-0.61-6.26-0.69-12.46-1.05-18.53c-0.18-3.04-0.41-6.05-0.85-9.01
		c-0.17-1.48-0.49-2.97-0.75-4.46c-0.3-1.47-0.5-2.98-0.88-4.41c-0.36-1.43-0.71-2.86-1.22-4.24c-0.42-1.41-1.03-2.74-1.57-4.1
		c-1.23-2.64-2.62-5.22-4.4-7.51c-1.77-2.29-3.81-4.36-6.11-6.11c-2.3-1.74-4.87-3.1-7.58-4.1c-2.71-0.99-5.57-1.61-8.47-1.79
		c-2.9-0.17-5.83,0.05-8.71,0.6c-2.89,0.52-5.7,1.46-8.4,2.68c-1.37,0.57-2.65,1.32-3.96,2.02c-1.25,0.8-2.54,1.55-3.72,2.47
		c-1.23,0.84-2.34,1.85-3.5,2.8l-1.63,1.55l-0.81,0.78l-0.76,0.83c-2.1,2.15-3.87,4.59-5.6,7.06c-0.37,0.53-1.11,0.66-1.64,0.29
		c-0.4-0.28-0.58-0.78-0.47-1.23L245.6,134.6z"/>
</g>
</svg>
